<svg width="512" height="512" viewBox="0 0 512 512" fill="none" xmlns="http://www.w3.org/2000/svg" xmlns:xlink="http://www.w3.org/1999/xlink" class=""><rect id="r9" width="512" height="512" x="0" y="0" rx="128" fill="url(#ra)" stroke="#FFFFFF" stroke-width="0" stroke-opacity="100%" paint-order="stroke"></rect><clipPath id="clip"><use xlink:href="#r9"></use></clipPath><defs><radialGradient id="ra" cx="50%" cy="50%" r="100%" fx="50%" fy="0%" gradientUnits="objectBoundingBox"><stop stop-color="#4d4d4d"></stop><stop offset="1" stop-color="#000000"></stop></radialGradient><radialGradient id="rb" cx="0" cy="0" r="1" gradientUnits="userSpaceOnUse" gradientTransform="translate(256) rotate(90) scale(512)"><stop stop-color="white"></stop><stop offset="1" stop-color="white" stop-opacity="0"></stop></radialGradient></defs>


<svg fill="#ffffff" height="450" width="450" version="1.1" id="Layer_1" xmlns="http://www.w3.org/2000/svg" xmlns:xlink="http://www.w3.org/1999/xlink" viewBox="0 0 224 224" xml:space="preserve" stroke="#ffffff" x="31" y="31" alignment-baseline="middle" style="color: rgb(230, 230, 230);">

<g id="SVGRepo_bgCarrier" stroke-width="0"></g>

<g id="SVGRepo_tracerCarrier" stroke-linecap="round" stroke-linejoin="round"></g>

<g id="SVGRepo_iconCarrier"> <g> <g> <g> <path d="M200,122c-11.869,0-21.725,8.668-23.639,20H160c-13.234,0-24,10.76-24,23.986V210h8v-44.014 c0-8.814,7.178-15.986,16-15.986h16.361c1.913,11.332,11.77,20,23.639,20c13.234,0,24-10.766,24-24S213.234,122,200,122z M200,162c-8.822,0-16-7.178-16-16s7.178-16,16-16s16,7.178,16,16S208.822,162,200,162z"></path> <path d="M92,62H76c0-13.234-10.766-24-24-24S28,48.766,28,62s10.766,24,24,24c10.426,0,19.295-6.693,22.6-16H92 c8.822,0,16,7.188,16,16.024V210h8V86.024C116,72.777,105.234,62,92,62z M52,78c-8.822,0-16-7.178-16-16s7.178-16,16-16 s16,7.178,16,16S60.822,78,52,78z"></path> <path d="M64,122H47.639c-1.914-11.332-11.77-20-23.639-20c-13.234,0-24,10.766-24,24s10.766,24,24,24 c11.869,0,21.725-8.668,23.639-20H64c8.822,0,16,7.184,16,16.014V210h8v-63.986C88,132.774,77.234,122,64,122z M24,142 c-8.822,0-16-7.178-16-16s7.178-16,16-16s16,7.178,16,16C40,134.822,32.822,142,24,142z"></path> <path d="M163.461,94h12.9c1.913,11.332,11.77,20,23.639,20c13.234,0,24-10.766,24-24s-10.766-24-24-24 c-11.869,0-21.725,8.668-23.639,20h-12.9c-6.297,0-11.42-5.125-11.42-11.426V14h-8v60.574C144.041,85.285,152.752,94,163.461,94z M200,74c8.822,0,16,7.178,16,16s-7.178,16-16,16s-16-7.178-16-16S191.178,74,200,74z"></path> </g> </g> </g> </g>

</svg></svg>